<svg width="60" height="60" viewBox="0 0 60 60" fill="none" xmlns="http://www.w3.org/2000/svg">
<path d="M30 4.5C44.0889 4.5 55.5 15.9111 55.5 30C55.5 44.0889 44.0889 55.5 30 55.5C15.9111 55.5 4.5 44.0889 4.5 30C4.5 15.9111 15.9111 4.5 30 4.5Z" fill="url(#paint0_linear_2_582)" stroke="#F4D374"/>
<path d="M26.9514 17.2572C27.7984 16.9749 28.6543 17.6021 28.6545 18.473C28.6545 18.9957 28.3434 19.4593 27.8537 19.6742L27.7532 19.7133C26.6939 20.0363 25.7107 20.5656 24.8459 21.222L24.4797 21.5121C23.007 22.7357 21.8459 24.3493 21.2287 26.2201C20.8857 27.2265 20.7034 28.3215 20.7034 29.4369V40.9847C20.7034 41.7053 20.125 42.2836 19.4045 42.2836C18.6842 42.2833 18.1067 41.7051 18.1067 40.9847V29.4369C18.1067 26.2693 19.261 23.3588 21.1575 21.1351L21.5471 20.6996C22.9165 19.2324 24.6333 18.0785 26.5578 17.391L26.9455 17.2592L26.9514 17.2572Z" fill="white" stroke="#F4D374"/>
<path d="M34.7209 17.1985L34.8742 17.2375L34.8762 17.2385C39.8651 18.814 43.5236 23.364 43.7854 28.8225L43.8 29.3538C43.8413 36.3804 38.1256 42.1993 31.1008 42.262H30.9533L30.6623 42.2542C27.6746 42.1018 25.3002 39.617 25.3 36.5872V29.4368L25.3078 29.1321C25.4682 26.1093 28.0008 23.7096 31.0647 23.7678L31.3723 23.7825H31.3732C34.0903 23.9753 36.3077 26.1316 36.6066 28.8167L36.6291 29.0784C36.7409 30.89 35.9951 32.5421 34.7707 33.6428L34.5197 33.8557L34.5168 33.8586C33.7114 34.5121 32.4504 33.9115 32.4504 32.8381C32.4505 32.4477 32.6205 32.0882 32.9221 31.8342L32.9211 31.8333C33.5949 31.2777 34.0232 30.4514 34.0529 29.5422V29.3557L34.0295 29.0588C33.8521 27.6909 32.7708 26.5881 31.4045 26.3879L31.1076 26.3586H31.1047C29.3261 26.2815 27.8538 27.6998 27.8537 29.4583V36.4133C27.8537 38.1894 29.2636 39.6646 31.0334 39.7083H31.2961C36.3499 39.5316 40.5463 35.6373 41.135 30.6506L41.1809 30.1653V30.1624C41.4895 25.4631 38.6337 21.3836 34.5217 19.8499L34.1203 19.7092H34.1193C33.5822 19.5355 33.2297 19.0512 33.2297 18.5168V18.4514C33.2299 17.6433 33.9571 17.0533 34.7209 17.1985Z" fill="white" stroke="#F4D374"/>
<circle cx="30" cy="30" r="29" stroke="#F4D374" stroke-width="2"/>
<defs>
<linearGradient id="paint0_linear_2_582" x1="4" y1="30" x2="56" y2="30" gradientUnits="userSpaceOnUse">
<stop stop-color="#F4D374"/>
<stop offset="1" stop-color="#F4D374"/>
</linearGradient>
</defs>
</svg>
